<?xml version="1.0" encoding="utf-8"?>
<!-- Generator: Adobe Illustrator 25.3.1, SVG Export Plug-In . SVG Version: 6.00 Build 0)  -->
<svg version="1.1" id="Flat" xmlns="http://www.w3.org/2000/svg" xmlns:xlink="http://www.w3.org/1999/xlink" x="0px" y="0px"
	 viewBox="0 0 221.9 241" style="enable-background:new 0 0 221.9 241;" xml:space="preserve">
<style type="text/css">
	.st0{fill:#35C0CC;}
</style>
<path class="st0" d="M185.6,56.4c-8.8-15.3-28.4-20.6-43.7-11.7c-2.3,1.3-4.5,3-6.4,4.9L121,24.4C112.2,9.1,92.6,3.8,77.3,12.7
	C74,14.6,71,17.1,68.6,20C54,10.1,34.1,14,24.2,28.6c-6.9,10.1-7.3,23.3-1.2,33.9l0.5,0.9c-17,4.7-27,22.4-22.3,39.4
	c0.7,2.6,1.8,5.1,3.1,7.4l42,72.7c25.4,44,81.7,59,125.7,33.6c44-25.4,59-81.6,33.7-125.6L185.6,56.4z M191.6,154.6
	c-9.7,36.3-47,57.8-83.3,48.1C90.9,198,76.1,186.6,67.1,171l-42-72.7c-2.2-3.8-0.9-8.7,2.9-10.9s8.7-0.9,10.9,2.9l22,38.1
	c0.2,0.4,0.5,0.8,0.8,1.2c0.1,0.1,0.2,0.2,0.3,0.3c0.2,0.3,0.5,0.5,0.7,0.8c0.1,0.1,0.2,0.2,0.3,0.3c0.3,0.3,0.7,0.6,1.1,0.9
	c0,0,0.1,0,0.1,0.1c0.4,0.3,0.7,0.5,1.1,0.7c0.1,0.1,0.2,0.1,0.4,0.2c0.3,0.2,0.6,0.3,0.9,0.4c0.1,0.1,0.2,0.1,0.4,0.2
	c0.4,0.2,0.9,0.3,1.3,0.4c0,0,0.1,0,0.1,0c0.4,0.1,0.8,0.2,1.2,0.2c0.1,0,0.3,0,0.4,0c0.3,0,0.7,0.1,1,0.1c0.1,0,0.2,0,0.3,0
	c0,0,0.1,0,0.1,0c0.5,0,0.9,0,1.4-0.1c0.1,0,0.1,0,0.2,0c0.4-0.1,0.8-0.1,1.2-0.2c0.1,0,0.3-0.1,0.4-0.1c0.3-0.1,0.7-0.2,1-0.3
	c0.1-0.1,0.3-0.1,0.4-0.2c4.2-1.7,7-5.7,7.3-10.2c0.2-2.4-0.4-4.8-1.6-6.8l-38-65.8c-2.2-3.8-0.9-8.7,3-10.9
	c3.8-2.2,8.7-0.9,10.9,2.9l34,58.9c0.2,0.4,0.4,0.7,0.7,1c3.9,5.4,11.4,6.6,16.8,2.7c5-3.6,6.4-10.4,3.4-15.7l-26-45
	c-2.2-3.8-0.9-8.7,2.9-10.9c3.8-2.2,8.7-0.9,10.9,2.9l30,52l0,0l4.7,8.1c-17.5,16.6-21.4,43-9.3,63.8c3.3,5.7,10.7,7.7,16.4,4.4
	s7.7-10.7,4.4-16.4c-7.7-13.4-3.1-30.5,10.2-38.2c0.3-0.2,0.7-0.4,1-0.7c0.2-0.2,0.4-0.3,0.6-0.5c0.1-0.1,0.2-0.2,0.3-0.2
	c0.3-0.2,0.5-0.5,0.7-0.7c0,0,0.1-0.1,0.1-0.1c0.2-0.3,0.5-0.5,0.7-0.8c0,0,0.1-0.1,0.1-0.1c0.2-0.3,0.4-0.5,0.6-0.8
	c0-0.1,0.1-0.1,0.1-0.2c0.2-0.3,0.3-0.5,0.4-0.8c0-0.1,0.1-0.2,0.1-0.2c0.1-0.3,0.2-0.5,0.4-0.8c0-0.1,0.1-0.2,0.1-0.3
	c0.3-0.7,0.5-1.5,0.6-2.3c0-0.1,0-0.2,0-0.3c0-0.3,0.1-0.6,0.1-0.9c0-0.1,0-0.2,0-0.2c0-0.3,0-0.6,0-0.9c0-0.1,0-0.1,0-0.2
	c0-0.3,0-0.7-0.1-1c0,0,0-0.1,0-0.1c0-0.4-0.1-0.7-0.2-1.1c0,0,0-0.1,0-0.1c-0.1-0.3-0.2-0.7-0.3-1c0-0.1-0.1-0.2-0.1-0.2
	c-0.1-0.3-0.2-0.6-0.3-0.9c-0.2-0.4-0.3-0.7-0.5-1.1l-10-17.3c-2.2-3.8-0.9-8.7,2.9-10.9c3.8-2.2,8.7-0.9,10.9,2.9l20,34.6
	C193.9,118.6,196.4,137.2,191.6,154.6L191.6,154.6z M215.9,52.4c-5.7,3.3-13.1,1.4-16.4-4.4c0,0,0,0,0,0c-8.6-14.8-24.4-24-41.6-24
	c-6.6,0-12-5.4-12-12s5.4-12,12-12h0c25.7,0.1,49.4,13.8,62.3,36C223.6,41.7,221.7,49.1,215.9,52.4z M58.1,236.7
	c-4.3,5.1-11.8,5.8-16.9,1.5c0,0,0,0,0,0c-11.8-9.9-21.8-21.8-29.5-35.2c-3.3-5.7-1.3-13.1,4.4-16.4s13.1-1.3,16.4,4.4
	c6.3,10.9,14.5,20.7,24.2,28.8C61.7,224.1,62.4,231.6,58.1,236.7C58.1,236.7,58.1,236.7,58.1,236.7z"/>
</svg>
