<?xml version="1.0" encoding="utf-8"?>
<!-- Generator: Adobe Illustrator 25.3.1, SVG Export Plug-In . SVG Version: 6.00 Build 0)  -->
<svg version="1.1" id="Layer_1" xmlns="http://www.w3.org/2000/svg" xmlns:xlink="http://www.w3.org/1999/xlink" x="0px" y="0px"
	 viewBox="0 0 256 256" style="enable-background:new 0 0 256 256;" xml:space="preserve">
<style type="text/css">
	.st0{fill:#35C0CC;}
</style>
<g>
	<g>
		<path class="st0" d="M74.4,181.1c11-41.9,25.9-83.2,47.6-120.8c-5.1-1.4-10.1-2.7-15.2-4.1c1,39.6-1.5,80.1,7.3,119
			c1.5,6.7,11.7,8.1,14.9,1.9c17.3-33.1,27.3-69.8,46.8-101.9c-5-2.1-9.9-4.2-14.9-6.3c-2.7,15.1-2.6,30.6-1.1,45.8
			c1.5,15.2,4,31.1,10.7,45c7,14.6,21.7,24.9,38.4,22.4c15.1-2.2,27.2-16.1,33.7-29.1c13.6-27.2,11.3-60.5-1.8-87.4
			c-13.1-26.8-39.1-47.1-66.6-57.7C120.9-12.5,55.2,13.2,24,59.4C-7.8,106.5-1.3,175,38.1,215.8c42.3,43.7,117.4,51.6,166.1,14.4
			c6.2-4.7,11.9-9.9,17-15.7c6.9-7.8-4.5-19.3-11.5-11.5c-17.4,19.5-41.4,32.1-67.6,34.4c-26.8,2.3-53.8-4.9-76.3-19.6
			c-40.9-26.6-55.2-82.1-39.5-127c16.2-46.4,66.8-75.9,115-73.2C166,19,189.7,31,207.5,47.8c18.7,17.7,28.9,42.5,27.9,68.3
			c-0.5,12.3-3.7,24.7-10.5,35.1c-6.2,9.6-17,19.2-28.9,13.4c-11.4-5.6-14.7-20.5-17.1-31.8c-2.9-13.6-4.1-27.6-3.9-41.6
			c0.1-6,0.5-12,1.5-17.9c1.6-8.8-9.8-14.6-14.9-6.3C142.3,99.1,132.2,135.8,115,169c5,0.6,9.9,1.3,14.9,1.9
			c-8.4-37.4-5.8-76.7-6.7-114.7c-0.2-7.9-11-11.2-15.2-4.1C85.6,90.9,70,133.6,58.7,176.8C56,186.9,71.7,191.2,74.4,181.1
			L74.4,181.1z"/>
	</g>
</g>
</svg>
