<?xml version="1.0" encoding="utf-8"?>
<!-- Generator: Adobe Illustrator 25.3.1, SVG Export Plug-In . SVG Version: 6.00 Build 0)  -->
<svg version="1.1" id="Layer_1" xmlns="http://www.w3.org/2000/svg" xmlns:xlink="http://www.w3.org/1999/xlink" x="0px" y="0px"
	 viewBox="0 0 92 93.2" style="enable-background:new 0 0 92 93.2;" xml:space="preserve">
<style type="text/css">
	.st0{fill:#00CBD4;}
</style>
<path class="st0" d="M46.5,65.3c0,0.5,0.4,0.9,0.9,0.9h21.3c0.5,0,0.9-0.4,0.9-0.9v-5.6c0-0.5-0.4-0.9-0.9-0.9H47.3
	c-0.5,0-0.9,0.4-0.9,0.9V65.3z M24,66l22.1-18.8c0.4-0.4,0.4-1.1,0-1.4L24,27.1c-0.4-0.3-1-0.3-1.3,0.1c-0.1,0.2-0.2,0.4-0.2,0.6
	v7.3c0,0.3,0.1,0.5,0.3,0.7l12.6,10.7L22.9,57.3c-0.2,0.2-0.3,0.4-0.3,0.7v7.3C22.5,66.1,23.5,66.5,24,66L24,66z M88.3,0H3.7
	C1.6,0,0,1.7,0,3.7v85.7c0,2.1,1.6,3.7,3.7,3.7h84.7c2,0,3.7-1.7,3.7-3.7V3.7C92,1.7,90.4,0,88.3,0z M83.7,84.8H8.3V8.4h75.5V84.8z"
	/>
</svg>
