<svg id="Layer_1" data-name="Layer 1" xmlns="http://www.w3.org/2000/svg" viewBox="0 0 2616 514.5"><defs><style>.cls-1,.cls-10,.cls-11,.cls-12,.cls-13,.cls-14,.cls-15,.cls-17,.cls-2,.cls-3,.cls-4,.cls-5,.cls-6,.cls-7,.cls-8,.cls-9{fill:none;}.cls-1,.cls-10,.cls-11,.cls-12,.cls-13,.cls-14,.cls-15,.cls-16,.cls-17,.cls-2,.cls-3,.cls-4,.cls-5,.cls-6,.cls-7,.cls-8,.cls-9{stroke:#00cbd4;}.cls-1,.cls-10,.cls-11,.cls-12,.cls-13,.cls-15,.cls-16,.cls-17,.cls-2,.cls-3,.cls-4,.cls-5,.cls-6,.cls-7,.cls-8,.cls-9{stroke-miterlimit:10;}.cls-1{stroke-width:4.85px;}.cls-2{stroke-width:7.27px;}.cls-2,.cls-3,.cls-6,.cls-7{fill-rule:evenodd;}.cls-3,.cls-9{stroke-width:6.79px;}.cls-4{stroke-width:6.63px;}.cls-5{stroke-width:6.72px;}.cls-6,.cls-8{stroke-width:4.32px;}.cls-7{stroke-width:5.94px;}.cls-10{stroke-width:6.82px;}.cls-11{stroke-width:5.89px;}.cls-12{stroke-width:5.09px;}.cls-13{stroke-width:6.09px;}.cls-14{stroke-linecap:round;stroke-linejoin:round;stroke-width:8.52px;}.cls-16,.cls-18{fill:#00cbd4;}.cls-16{stroke-width:1.39px;}.cls-17{stroke-width:6.68px;}</style></defs><line class="cls-1" x1="2072.89" y1="474.94" x2="1198.7" y2="474.94"/><path class="cls-2" d="M930.88,378.14V519.42H845.75c-8.75,0-15.84,8.21-15.84,18.35V675.35H501.78c-13.94,0-25.26-13.11-25.26-29.26v-268c0-16.15,11.32-29.26,25.26-29.26H905.61C919.56,348.88,930.88,362,930.88,378.14Z" transform="translate(343 -282.5)"/><path class="cls-3" d="M1118.09,711.23v22c0,5-3.51,9.08-7.85,9.08H820.93c-4.34,0-7.85-4.06-7.85-9.08v-22c0-5,3.51-9.08,7.85-9.08h289.31C1114.58,702.15,1118.09,706.21,1118.09,711.23Z" transform="translate(343 -282.5)"/><line class="cls-4" x1="1507.37" y1="100.49" x2="1507.37" y2="392.85"/><line class="cls-5" x1="1841.08" y1="392.85" x2="1504.52" y2="392.85"/><path class="cls-6" d="M855.7,748.44v1.26c0,2.65-3.52,4.8-7.85,4.8H558.54c-4.34,0-7.85-2.15-7.85-4.8v-1.26Z" transform="translate(343 -282.5)"/><path class="cls-7" d="M855.7,742.34v6.1h-305V728.77c0-5,3.51-9.06,7.85-9.06H813.08v13.55c0,5,3.51,9.08,7.85,9.08Z" transform="translate(343 -282.5)"/><line class="cls-8" x1="1022.51" y1="394.07" x2="1022.51" y2="437.92"/><line class="cls-8" x1="1089.82" y1="394.07" x2="1089.82" y2="437.92"/><path class="cls-9" d="M437.61,637.58v74.65c0,20.69-14.46,37.42-32.31,37.42h-8.42c-17,0-30.79-16-30.79-35.66V637.58c0-5.38,3.76-9.74,8.41-9.74h54.69C433.84,627.84,437.61,632.2,437.61,637.58Z" transform="translate(343 -282.5)"/><path class="cls-10" d="M390.19,627.84H376.71L367.9,598.9c-1.16-3.85.56-8,3.89-9.41a5.41,5.41,0,0,1,2.1-.41,6.45,6.45,0,0,1,6,4.92Z" transform="translate(343 -282.5)"/><path class="cls-10" d="M424.77,573.46a8.72,8.72,0,0,1-.06,1l-6.46,53.36H405.4l6.71-55.4c.48-4,3.7-6.82,7.19-6.26C422.48,566.69,424.77,569.85,424.77,573.46Z" transform="translate(343 -282.5)"/><rect class="cls-10" x="1553.64" y="307.58" width="35.76" height="85.27"/><rect class="cls-9" x="1627.27" y="176.02" width="35.76" height="216.83"/><rect class="cls-11" x="1770.3" y="229.62" width="35.76" height="163.23"/><rect class="cls-12" x="1700.89" y="271.03" width="35.76" height="121.81"/><path class="cls-13" d="M1099.16,537.77V691.11a20.08,20.08,0,0,1-3.2,11H833.11a20.08,20.08,0,0,1-3.2-11V537.77c0-10.14,7.09-18.35,15.84-18.35h237.57C1092.07,519.42,1099.16,527.63,1099.16,537.77Z" transform="translate(343 -282.5)"/><path class="cls-13" d="M903.53,396V519.42H845.75c-8.75,0-15.84,8.21-15.84,18.35v93.72H515.06c-7.34,0-13.3-6.89-13.3-15.39V396c0-8.5,6-15.4,13.3-15.4H890.24C897.58,380.55,903.53,387.45,903.53,396Z" transform="translate(343 -282.5)"/><path class="cls-14" d="M1012,432.92h26.24c4.53,0,8.2,4,8.2,8.85h0c0,4.88-3.67,8.85-8.2,8.85H1012" transform="translate(343 -282.5)"/><ellipse class="cls-15" cx="1367.26" cy="184.45" rx="4.1" ry="4.43"/><path class="cls-14" d="M1031.52,390.21a20.22,20.22,0,0,1,.57-11.9,57.4,57.4,0,0,1,6.64-10.62c6.19-9.38-20.5-7.79-23.57-7.26a21.66,21.66,0,0,0-2.62.62c-5.95,1.86-3.24,7.22-.54,10.93a25.09,25.09,0,0,1,6.15,10.89,19.43,19.43,0,0,1-8,18.05c-7.09,5.49-14.72,3.1-20.5-3.4a45.74,45.74,0,0,1-10-30.27c0-26.52,19.87-48,44.44-48.06s44.49,21.45,44.52,48-19.85,48-44.4,48.06H1012c-4.53,0-8.2,4-8.2,8.85s3.67,8.85,8.2,8.85h26.32" transform="translate(343 -282.5)"/><line class="cls-14" x1="1367.26" y1="4.26" x2="1367.26" y2="22.09"/><line class="cls-14" x1="1404.93" y1="14.3" x2="1397.19" y2="30.1"/><line class="cls-14" x1="1330.65" y1="13.82" x2="1338.2" y2="29.7"/><rect class="cls-16" x="473.89" y="477.56" width="1599.5" height="0.07"/><rect class="cls-13" x="878.42" y="149.22" width="16.83" height="19.49"/><rect class="cls-13" x="914.18" y="149.22" width="273.46" height="19.49"/><rect class="cls-13" x="878.42" y="202.82" width="16.83" height="19.49"/><rect class="cls-13" x="914.18" y="202.82" width="273.46" height="19.49"/><rect class="cls-13" x="878.42" y="256.42" width="16.83" height="19.49"/><rect class="cls-13" x="914.18" y="256.42" width="258.73" height="19.49"/><rect class="cls-17" x="1193.94" y="261.29" width="227.18" height="158.36" rx="4.1"/><polyline class="cls-9" points="1276.58 379 1234.96 339.29 1275.86 300.27"/><polyline class="cls-9" points="1340.59 300.71 1382.21 340.43 1341.31 379.45"/><line class="cls-9" x1="1324.51" y1="306.2" x2="1289.43" y2="375.86"/><rect class="cls-18" y="471.13" width="2616" height="43.37" rx="0.73"/></svg>